<!DOCTYPE svg PUBLIC "-//W3C//DTD SVG 1.1//EN" "http://www.w3.org/Graphics/SVG/1.1/DTD/svg11.dtd">
<!-- Uploaded to: SVG Repo, www.svgrepo.com, Transformed by: SVG Repo Mixer Tools -->
<svg width="207px" height="207px" viewBox="0 0 24.00 24.00" version="1.1" xmlns="http://www.w3.org/2000/svg" xmlns:xlink="http://www.w3.org/1999/xlink" fill="#ab7813" stroke="#ab7813">
<g id="SVGRepo_bgCarrier" stroke-width="0"/>
<g id="SVGRepo_tracerCarrier" stroke-linecap="round" stroke-linejoin="round"/>
<g id="SVGRepo_iconCarrier"> <title>user</title> <desc>Created with sketchtool.</desc> <g id="web-app" stroke-width="0.00024000000000000003" fill="none" fill-rule="evenodd"> <g id="user" fill="#ab7813" fill-rule="nonzero"> <path d="M12,12 C9.790861,12 8,10.209139 8,8 C8,5.790861 9.790861,4 12,4 C14.209139,4 16,5.790861 16,8 C16,10.209139 14.209139,12 12,12 Z M12,15 C15.1858467,15 18.0454815,15.5712647 20,18.0625268 C20,18.7758847 20,19.4217091 20,20 C9.33333333,20 4,20 4,20 C4,20 4,19.1325637 4,18.0625268 C5.95451855,15.5712647 8.81415326,15 12,15 Z" id="Shape"> </path> </g> </g> </g>
</svg>